PathFileType	4	(x/y/z)	S02_PSF_T02
DataRate	CameraRate	NumFrames	NumMarkers	Units	OrigDataRate	OrigDataStartFrame	OrigNumFrames
240	240	6	51	mm	240	206	410
Frame#	Time	Sternum			R.Acromium			L.Acromium			Top.Head			R.ASIS			L.ASIS			R.PSIS			L.PSIS			R.Great.Tro			L.Great.Tro			R.Iliac.Crest			L.Iliac.Crest			V.Sacral			R.Thigh.Upper.Post			R.Thigh.Lower.Ant			R.Thigh.Lower.Post			R.Thigh.Upper.Ant			R.Knee.Lat			R.Knee.Med			R.Shank.Upper.Post			R.Shank.Lower.Ant			R.Shank.Lower.Post			R.Shank.Upper.Ant			R.Ankle.Lat			R.Ankle.Med			R.Heel.Upper			R.Heel.Med			R.Heel.Lat			R.Toe.Lat			R.Toe.Med			R.Toe.Tip			L.Thigh.Upper.Post			L.Thigh.Lower.Ant			L.Thigh.Lower.Post			L.Thigh.Upper.Ant			L.Knee.Lat			L.Knee.Med			L.Shank.Upper.Post			L.Shank.Lower.Ant			L.Shank.Lower.Post			L.Shank.Upper.Ant			L.Ankle.Lat			L.Ankle.Med			L.Heel.Upper			L.Heel.Med			L.Heel.Lat			L.Toe.Lat			L.Toe.Med			L.Toe.Tip			Cervical.Spine			Back			
		X1	Y1	Z1	X2	Y2	Z2	X3	Y3	Z3	X4	Y4	Z4	X5	Y5	Z5	X6	Y6	Z6	X7	Y7	Z7	X8	Y8	Z8	X9	Y9	Z9	X10	Y10	Z10	X11	Y11	Z11	X12	Y12	Z12	X13	Y13	Z13	X14	Y14	Z14	X15	Y15	Z15	X16	Y16	Z16	X17	Y17	Z17	X18	Y18	Z18	X19	Y19	Z19	X20	Y20	Z20	X21	Y21	Z21	X22	Y22	Z22	X23	Y23	Z23	X24	Y24	Z24	X25	Y25	Z25	X26	Y26	Z26	X27	Y27	Z27	X28	Y28	Z28	X29	Y29	Z29	X30	Y30	Z30	X31	Y31	Z31	X32	Y32	Z32	X33	Y33	Z33	X34	Y34	Z34	X35	Y35	Z35	X36	Y36	Z36	X37	Y37	Z37	X38	Y38	Z38	X39	Y39	Z39	X40	Y40	Z40	X41	Y41	Z41	X42	Y42	Z42	X43	Y43	Z43	X44	Y44	Z44	X45	Y45	Z45	X46	Y46	Z46	X47	Y47	Z47	X48	Y48	Z48	X49	Y49	Z49	X50	Y50	Z50	X51	Y51	Z51	

206	0.85417	-298.31	1106.1	330.56	-397.71	1337.1	488.7	-411.91	1350.1	196.33	-371.6	1633.1	355.73	-325.31	941.81	431.6	-327.99	932.09	223.21	-538.51	979.43	385.15	-543.96	982.05	311.46	-393.06	812.28	523.88	-446.7	819.92	142.15	-427.48	980.67	495.85	-452.61	980.58	164.07	-569.41	934.88	345.07	-378.82	613.5	496.96	-321.58	541.46	452.45	-389.86	526.56	474.5	-314.92	628.41	474.3	-371.35	450.23	452.22	-385.53	445.08	310.4	-477.54	254.94	427.26	-413.9	166.25	405.23	-480.4	182.27	414.19	-407.29	233.47	425.32	-475.09	90.131	396.81	-466.12	109.23	316.39	-539.53	77.086	339.53	-525.83	45.37	311.24	-536.36	45.256	374.89	-375.55	38.975	418.15	-341.61	34.879	311.71	-293.75	61.025	368.12	-393.32	603.27	155.99	-296.11	554.14	137.25	-359.15	519.94	170.9	-337.67	639.82	127.24	-292.55	471.05	144.59	-257.65	470.64	282.25	-443.29	368.45	177.46	-430.43	257.83	181.76	-482.09	308.07	197.53	-397.04	324.54	163.54	-518.63	198.22	210.31	-495.16	185.77	287.68	-578.54	201.16	256.84	-579.75	175.62	291.08	-595.29	175.95	230.93	-474.29	74.58	176.56	-432.26	70.519	277.43	-382.37	51.804	221.8	-481.39	1404.8	352.64	-556.41	1154.3	348.31
207	0.85833	-293.28	1107.1	330.77	-392.44	1338.1	488.76	-406.95	1350.9	196.4	-366.49	1633.8	355.8	-320.79	942.75	432.18	-322.7	933.23	223.94	-533.64	980.15	384.81	-538.79	982.88	311.1	-389.08	812.61	524.11	-440.54	821.04	142.06	-423.09	981.38	495.94	-447.09	981.62	164.22	-564.44	935.69	344.54	-376.82	613.64	497.04	-320.19	541.02	452.67	-388.69	526.81	474.5	-312.64	627.87	474.61	-370.87	450.33	452.32	-384.92	445.27	310.36	-477.52	255.26	427.14	-413.94	166.48	405.35	-480.43	182.6	414.13	-407.29	233.69	425.43	-475.07	90.262	396.81	-466.02	109.41	316.38	-539.46	77.246	339.53	-525.83	45.502	311.2	-536.33	45.397	374.87	-375.55	38.957	418.17	-341.63	34.901	311.75	-293.73	61.017	368.15	-386.11	604.27	156.11	-288.39	555.79	138.16	-351.42	521.19	171.39	-330.52	641.15	127.67	-284.36	472.6	145.73	-250.26	472.64	283.37	-433.23	366.34	178	-417.63	256.09	182.32	-470.44	305.09	197.86	-385.83	323.58	164.25	-504.48	194.21	210.56	-480.81	182.33	288.01	-564.75	195.28	256.95	-565.19	169.57	291.1	-580.59	169.57	230.99	-456.4	72.038	176.68	-414.44	69.128	277.63	-363.88	52.039	222.07	-476.19	1405.5	352.74	-551.25	1155	348.69
208	0.8625	-288.26	1108	330.99	-387.17	1339	488.82	-401.97	1351.6	196.47	-361.39	1634.4	355.85	-316.29	943.63	432.76	-317.42	934.3	224.66	-528.78	980.8	384.46	-533.64	983.65	310.74	-385.12	812.89	524.33	-434.36	822.13	141.92	-418.71	982.03	496.02	-441.57	982.59	164.36	-559.48	936.44	344	-374.85	613.76	497.11	-318.84	540.57	452.89	-387.54	527.05	474.48	-310.4	627.31	474.92	-370.42	450.42	452.41	-384.28	445.44	310.31	-477.5	255.58	427	-414	166.71	405.45	-480.46	182.92	414.04	-407.3	233.9	425.51	-475.05	90.393	396.81	-465.92	109.59	316.35	-539.38	77.403	339.51	-525.82	45.634	311.15	-536.3	45.541	374.83	-375.55	38.941	418.19	-341.65	34.918	311.79	-293.71	61.008	368.19	-378.98	605.23	156.23	-280.78	557.36	139.1	-343.82	522.37	171.89	-323.43	642.42	128.12	-276.31	474.08	146.9	-243.05	474.54	284.5	-423.15	364.11	178.54	-404.77	254.31	182.86	-458.71	302.02	198.19	-374.62	322.56	164.95	-490.19	190.16	210.78	-466.32	178.85	288.31	-550.75	189.34	257.02	-550.41	163.49	291.1	-565.66	163.15	231.03	-438.39	69.552	176.8	-396.54	67.804	277.83	-345.36	52.355	222.34	-470.97	1406.1	352.83	-546.1	1155.7	349.06
209	0.86667	-283.22	1108.9	331.22	-381.9	1339.8	488.86	-396.98	1352.3	196.53	-356.29	1635	355.89	-311.79	944.44	433.33	-312.15	935.31	225.37	-523.93	981.39	384.1	-528.5	984.35	310.37	-381.16	813.12	524.55	-428.16	823.18	141.75	-414.34	982.63	496.09	-436.04	983.51	164.49	-554.52	937.11	343.44	-372.9	613.87	497.17	-317.5	540.11	453.11	-386.41	527.28	474.45	-308.18	626.73	475.23	-369.98	450.52	452.48	-383.59	445.59	310.25	-477.48	255.9	426.86	-414.06	166.94	405.53	-480.49	183.23	413.95	-407.32	234.12	425.58	-475.02	90.525	396.78	-465.81	109.77	316.31	-539.31	77.556	339.48	-525.8	45.766	311.11	-536.26	45.688	374.79	-375.55	38.926	418.19	-341.68	34.931	311.83	-293.69	60.997	368.22	-371.93	606.13	156.37	-273.28	558.84	140.07	-336.35	523.48	172.39	-316.41	643.61	128.59	-268.4	475.48	148.1	-236.01	476.31	285.67	-413.05	361.78	179.09	-391.85	252.5	183.39	-446.91	298.86	198.52	-363.42	321.5	165.66	-475.75	186.08	210.98	-451.67	175.33	288.58	-536.53	183.35	257.05	-535.41	157.39	291.07	-550.5	156.71	231.03	-420.27	67.134	176.9	-378.54	66.555	278.01	-326.81	52.759	222.61	-465.74	1406.6	352.9	-540.95	1156.3	349.43
210	0.87083	-278.18	1109.8	331.47	-376.63	1340.6	488.9	-391.96	1352.9	196.58	-351.19	1635.6	355.91	-307.28	945.18	433.89	-306.88	936.24	226.08	-519.1	981.91	383.74	-523.38	984.99	309.99	-377.22	813.29	524.77	-421.95	824.18	141.54	-409.97	983.16	496.17	-430.51	984.36	164.61	-549.56	937.72	342.87	-370.98	613.96	497.22	-316.19	539.63	453.33	-385.29	527.51	474.41	-305.99	626.13	475.53	-369.56	450.61	452.55	-382.86	445.72	310.18	-477.46	256.21	426.72	-414.13	167.17	405.58	-480.52	183.54	413.85	-407.36	234.34	425.63	-474.99	90.657	396.74	-465.69	109.95	316.27	-539.23	77.706	339.43	-525.76	45.897	311.05	-536.23	45.837	374.74	-375.55	38.912	418.19	-341.7	34.94	311.87	-293.67	60.984	368.25	-364.96	606.97	156.51	-265.89	560.22	141.07	-329	524.52	172.9	-309.45	644.72	129.09	-260.63	476.79	149.32	-229.14	477.97	286.86	-402.93	359.35	179.65	-378.89	250.67	183.92	-435.04	295.62	198.86	-352.22	320.38	166.36	-461.18	181.99	211.14	-436.88	171.79	288.82	-522.1	177.33	257.05	-520.18	151.3	291.01	-535.12	150.27	231	-402.05	64.8	176.98	-360.47	65.392	278.19	-308.25	53.26	222.86	-460.5	1407.1	352.96	-535.8	1156.9	349.79
211	0.875	-273.13	1110.6	331.72	-371.35	1341.4	488.93	-386.93	1353.4	196.63	-346.09	1636.1	355.9	-302.78	945.84	434.45	-301.61	937.09	226.77	-514.27	982.37	383.36	-518.26	985.57	309.6	-373.3	813.41	524.99	-415.74	825.13	141.3	-405.61	983.64	496.23	-424.98	985.15	164.71	-544.6	938.25	342.3	-369.08	614.04	497.26	-314.9	539.14	453.54	-384.19	527.72	474.36	-303.82	625.51	475.83	-369.16	450.7	452.6	-382.08	445.82	310.11	-477.44	256.51	426.57	-414.22	167.4	405.61	-480.54	183.84	413.74	-407.4	234.56	425.66	-474.95	90.79	396.68	-465.57	110.13	316.22	-539.16	77.851	339.36	-525.71	46.028	311	-536.2	45.989	374.68	-375.55	38.898	418.18	-341.72	34.946	311.9	-293.65	60.97	368.28	-358.07	607.75	156.66	-258.61	561.51	142.1	-321.78	525.48	173.42	-302.56	645.76	129.62	-253.01	478	150.57	-222.44	479.5	288.08	-392.79	356.83	180.21	-365.87	248.84	184.44	-423.1	292.31	199.21	-341.02	319.23	167.06	-446.47	177.9	211.28	-421.95	168.24	289.04	-507.45	171.3	257.03	-504.73	145.22	290.93	-519.5	143.85	230.94	-383.74	62.564	177.05	-342.33	64.325	278.35	-289.67	53.865	223.09	-455.25	1407.6	353.01	-530.65	1157.4	350.15
